<?xml version="1.0" encoding="UTF-8" standalone="no"?>
<!-- Created with Inkscape (http://www.inkscape.org/) -->
<svg
   xmlns:dc="http://purl.org/dc/elements/1.1/"
   xmlns:cc="http://web.resource.org/cc/"
   xmlns:rdf="http://www.w3.org/1999/02/22-rdf-syntax-ns#"
   xmlns:svg="http://www.w3.org/2000/svg"
   xmlns="http://www.w3.org/2000/svg"
   xmlns:sodipodi="http://sodipodi.sourceforge.net/DTD/sodipodi-0.dtd"
   xmlns:inkscape="http://www.inkscape.org/namespaces/inkscape"
   width="744.09448819"
   height="1052.3622047"
   id="svg2"
   sodipodi:version="0.32"
   inkscape:version="0.44.1"
   sodipodi:docbase="/home/alex/projects/pyglet/doc"
   sodipodi:docname="logo5.svg">
  <defs
     id="defs4">
    <marker
       inkscape:stockid="TriangleOutS"
       orient="auto"
       refY="0.0"
       refX="0.0"
       id="TriangleOutS"
       style="overflow:visible">
      <path
         id="path2902"
         d="M 5.77,0.0 L -2.88,5.0 L -2.88,-5.0 L 5.77,0.0 z "
         style="fill-rule:evenodd;stroke:#000000;stroke-width:1.0pt;marker-start:none"
         transform="scale(0.2)" />
    </marker>
    <marker
       inkscape:stockid="Arrow2Send"
       orient="auto"
       refY="0.0"
       refX="0.0"
       id="Arrow2Send"
       style="overflow:visible;">
      <path
         id="path2973"
         style="font-size:12.0;fill-rule:evenodd;stroke-width:0.62500000;stroke-linejoin:round;"
         d="M 8.7185878,4.0337352 L -2.2072895,0.016013256 L 8.7185884,-4.0017078 C 6.9730900,-1.6296469 6.9831476,1.6157441 8.7185878,4.0337352 z "
         transform="scale(0.3) rotate(180) translate(-2.3,0)" />
    </marker>
    <marker
       inkscape:stockid="Arrow1Lend"
       orient="auto"
       refY="0.0"
       refX="0.0"
       id="Arrow1Lend"
       style="overflow:visible;">
      <path
         id="path3003"
         d="M 0.0,0.0 L 5.0,-5.0 L -12.5,0.0 L 5.0,5.0 L 0.0,0.0 z "
         style="fill-rule:evenodd;stroke:#000000;stroke-width:1.0pt;marker-start:none;"
         transform="scale(0.8) rotate(180) translate(12.5,0)" />
    </marker>
  </defs>
  <sodipodi:namedview
     id="base"
     pagecolor="#ffffff"
     bordercolor="#666666"
     borderopacity="1.0"
     gridtolerance="10000"
     guidetolerance="10"
     objecttolerance="10"
     inkscape:pageopacity="0.0"
     inkscape:pageshadow="2"
     inkscape:zoom="0.7"
     inkscape:cx="576.43876"
     inkscape:cy="530.06977"
     inkscape:document-units="px"
     inkscape:current-layer="layer1"
     inkscape:window-width="1230"
     inkscape:window-height="972"
     inkscape:window-x="1280"
     inkscape:window-y="0" />
  <metadata
     id="metadata7">
    <rdf:RDF>
      <cc:Work
         rdf:about="">
        <dc:format>image/svg+xml</dc:format>
        <dc:type
           rdf:resource="http://purl.org/dc/dcmitype/StillImage" />
      </cc:Work>
    </rdf:RDF>
  </metadata>
  <g
     inkscape:label="Layer 1"
     inkscape:groupmode="layer"
     id="layer1"
     style="display:inline">
    <path
       id="path3874"
       d="M 558.39286,90.116074 C 493.4914,90.116074 440.64286,142.96462 440.64286,207.86607 C 440.64285,272.76752 493.49141,325.61608 558.39286,325.61607 C 623.27328,325.61607 676.10866,272.80119 676.14286,207.92857 C 676.14286,207.91806 676.14286,207.90783 676.14286,207.89732 C 676.14287,207.8869 676.14288,207.87649 676.14286,207.86607 C 676.14895,207.67862 676.14896,207.49102 676.14286,207.30357 C 676.14234,207.19801 676.1124,207.09657 676.11161,206.99107 C 675.62946,142.439 622.98559,90.116084 558.39286,90.116074 z M 558.39286,107.42857 C 613.76734,107.42858 658.56335,151.99222 658.83036,207.36607 C 658.82847,207.47023 658.82848,207.57441 658.83036,207.67857 C 658.82967,207.74107 658.82968,207.80357 658.83036,207.86607 C 658.83036,263.40713 613.93392,308.30357 558.39286,308.30357 C 502.85179,308.30358 457.95536,263.40714 457.95536,207.86607 C 457.95535,165.65019 483.90148,129.58559 520.73661,114.70982 C 513.30382,131.33866 510.56347,149.77322 513.42411,166.58482 C 514.23061,171.32452 515.71446,175.889 517.58036,180.27232 C 515.81264,190.20371 515.39011,201.56061 517.08036,214.74107 C 521.20709,246.92099 537.59806,263.53147 553.01786,270.27232 C 568.43766,277.01318 582.83036,274.83482 582.83036,274.83482 C 582.83036,274.83483 577.71526,275.24823 582.83036,274.77232 C 587.50751,274.33717 591.86036,274.55815 602.29911,268.42857 C 602.29914,268.42858 606.39286,276.30357 606.39286,276.30357 C 606.39288,276.30356 624.48661,247.86607 624.48661,247.86607 C 624.48662,247.86606 590.01786,245.89732 590.01786,245.89732 C 590.01789,245.89735 594.14286,253.99107 594.14286,253.99107 C 586.35086,257.71478 585.44887,257.61978 580.48661,257.80357 C 580.4866,257.80358 570.57214,259.06976 559.95536,254.42857 C 549.33858,249.78739 537.76946,240.1025 534.23661,212.55357 C 533.72028,208.5273 533.48366,204.84141 533.33036,201.30357 C 540.81977,207.31075 550.1704,211.54446 561.51786,212.70982 C 582.35971,214.85024 599.4766,206.04859 606.61161,191.58482 C 613.74662,177.12106 610.27268,158.41655 596.36161,143.74107 C 584.29923,131.01587 562.27612,128.2905 543.64286,138.86607 C 538.46382,141.80551 533.81951,145.99509 529.76786,151.17857 C 530.29581,136.75864 535.2846,120.98749 544.04911,108.45982 C 548.73707,107.79117 553.51772,107.42857 558.39286,107.42857 z M 566.17411,150.20982 C 573.89893,150.02985 580.8779,152.53434 583.79911,155.61607 C 593.86962,166.23996 594.70705,176.60795 591.08036,183.95982 C 587.45367,191.3117 578.75788,197.07865 563.29911,195.49107 C 549.028,194.02547 540.31674,187.68753 535.26786,178.20982 C 538.51434,165.32757 545.13451,157.91048 552.20536,153.89732 C 556.64613,151.37691 561.53922,150.3178 566.17411,150.20982 z "
       style="fill:black;fill-opacity:1;fill-rule:nonzero;stroke:none;stroke-width:17.29999924;stroke-linecap:round;stroke-linejoin:round;stroke-miterlimit:4;stroke-opacity:1" />
    <rect
       y="411.64795"
       x="-10.000001"
       height="260.71429"
       width="809.28571"
       id="rect3888"
       style="opacity:1;fill:black;fill-opacity:1;fill-rule:nonzero;stroke:none;stroke-width:3.18600011;stroke-linecap:butt;stroke-linejoin:round;stroke-miterlimit:4;stroke-dasharray:none;stroke-dashoffset:0;stroke-opacity:1" />
    <rect
       style="opacity:1;fill:black;fill-opacity:1;fill-rule:nonzero;stroke:none;stroke-width:3.18600011;stroke-linecap:butt;stroke-linejoin:round;stroke-miterlimit:4;stroke-dasharray:none;stroke-dashoffset:0;stroke-opacity:1"
       id="rect3872"
       width="142.14285"
       height="259.28574"
       x="18.57143"
       y="763.07648" />
    <path
       style="fill:#7a7a7a;fill-opacity:0.5139665;fill-rule:nonzero;stroke:none;stroke-width:17.29999924;stroke-linecap:round;stroke-linejoin:round;stroke-miterlimit:4;stroke-opacity:1"
       d="M 158.39286,772.97321 C 93.491402,772.97321 40.642862,825.82176 40.642862,890.72321 C 40.642852,955.62466 93.491412,1008.4732 158.39286,1008.4732 C 223.27328,1008.4732 276.10866,955.65833 276.14286,890.78571 C 276.14286,890.7752 276.14286,890.76497 276.14286,890.75446 C 276.14287,890.74404 276.14288,890.73363 276.14286,890.72321 C 276.14895,890.53576 276.14896,890.34816 276.14286,890.16071 C 276.14234,890.05515 276.1124,889.95371 276.11161,889.84821 C 275.62946,825.29614 222.98559,772.97322 158.39286,772.97321 z M 158.39286,790.28571 C 213.76734,790.28572 258.56335,834.84936 258.83036,890.22321 C 258.82847,890.32737 258.82848,890.43155 258.83036,890.53571 C 258.82967,890.59821 258.82968,890.66071 258.83036,890.72321 C 258.83036,946.26427 213.93392,991.16071 158.39286,991.16071 C 102.85179,991.16072 57.955362,946.26428 57.955362,890.72321 C 57.955352,848.50733 83.901482,812.44273 120.73661,797.56696 C 113.30382,814.1958 110.56347,832.63036 113.42411,849.44196 C 114.23061,854.18166 115.71446,858.74614 117.58036,863.12946 C 115.81264,873.06085 115.39011,884.41775 117.08036,897.59821 C 121.20709,929.77813 137.59806,946.38861 153.01786,953.12946 C 168.43766,959.87032 182.83036,957.69196 182.83036,957.69196 C 182.83036,957.69197 177.71526,958.10537 182.83036,957.62946 C 187.50751,957.19431 191.86036,957.41529 202.29911,951.28571 C 202.29914,951.28572 206.39286,959.16071 206.39286,959.16071 C 206.39288,959.1607 224.48661,930.72321 224.48661,930.72321 C 224.48662,930.7232 190.01786,928.75446 190.01786,928.75446 C 190.01789,928.75449 194.14286,936.84821 194.14286,936.84821 C 186.35086,940.57192 185.44887,940.47692 180.48661,940.66071 C 180.4866,940.66072 170.57214,941.9269 159.95536,937.28571 C 149.33858,932.64453 137.76946,922.95964 134.23661,895.41071 C 133.72028,891.38444 133.48366,887.69855 133.33036,884.16071 C 140.81977,890.16789 150.1704,894.4016 161.51786,895.56696 C 182.35971,897.70738 199.4766,888.90573 206.61161,874.44196 C 213.74662,859.9782 210.27268,841.27369 196.36161,826.59821 C 184.29923,813.87301 162.27612,811.14764 143.64286,821.72321 C 138.46382,824.66265 133.81951,828.85223 129.76786,834.03571 C 130.29581,819.61578 135.2846,803.84463 144.04911,791.31696 C 148.73707,790.64831 153.51772,790.28571 158.39286,790.28571 z M 166.17411,833.06696 C 173.89893,832.88699 180.8779,835.39148 183.79911,838.47321 C 193.86962,849.0971 194.70705,859.46509 191.08036,866.81696 C 187.45367,874.16884 178.75788,879.93579 163.29911,878.34821 C 149.028,876.88261 140.31674,870.54467 135.26786,861.06696 C 138.51434,848.18471 145.13451,840.76762 152.20536,836.75446 C 156.64613,834.23405 161.53922,833.17494 166.17411,833.06696 z "
       id="path3866"
       inkscape:export-filename="/home/alex/foreign/bruce/examples/pyglet-watermark.png"
       inkscape:export-xdpi="48.919998"
       inkscape:export-ydpi="48.919998" />
    <path
       style="fill:white;fill-opacity:1;fill-rule:nonzero;stroke:none;stroke-width:17.29999924;stroke-linecap:round;stroke-linejoin:round;stroke-miterlimit:4;stroke-opacity:1"
       d="M 572.67858,432.97321 C 507.77712,432.97321 454.92858,485.82176 454.92858,550.72321 C 454.92857,615.62466 507.77713,668.47322 572.67858,668.47321 C 637.559,668.47321 690.39438,615.65833 690.42858,550.78571 C 690.42858,550.7752 690.42858,550.76497 690.42858,550.75446 C 690.42859,550.74404 690.4286,550.73363 690.42858,550.72321 C 690.43467,550.53576 690.43468,550.34816 690.42858,550.16071 C 690.42806,550.05515 690.39812,549.95371 690.39733,549.84821 C 689.91518,485.29614 637.27131,432.97322 572.67858,432.97321 z M 572.67858,450.28571 C 628.05306,450.28572 672.84907,494.84936 673.11608,550.22321 C 673.11419,550.32737 673.1142,550.43155 673.11608,550.53571 C 673.11539,550.59821 673.1154,550.66071 673.11608,550.72321 C 673.11608,606.26427 628.21964,651.16071 572.67858,651.16071 C 517.13751,651.16072 472.24108,606.26428 472.24108,550.72321 C 472.24107,508.50733 498.1872,472.44273 535.02233,457.56696 C 527.58954,474.1958 524.84919,492.63036 527.70983,509.44196 C 528.51633,514.18166 530.00018,518.74614 531.86608,523.12946 C 530.09836,533.06085 529.67583,544.41775 531.36608,557.59821 C 535.49281,589.77813 551.88378,606.38861 567.30358,613.12946 C 582.72338,619.87032 597.11608,617.69196 597.11608,617.69196 C 597.11608,617.69197 592.00098,618.10537 597.11608,617.62946 C 601.79323,617.19431 606.14608,617.41529 616.58483,611.28571 C 616.58486,611.28572 620.67858,619.16071 620.67858,619.16071 C 620.6786,619.1607 638.77233,590.72321 638.77233,590.72321 C 638.77234,590.7232 604.30358,588.75446 604.30358,588.75446 C 604.30361,588.75449 608.42858,596.84821 608.42858,596.84821 C 600.63658,600.57192 599.73459,600.47692 594.77233,600.66071 C 594.77232,600.66072 584.85786,601.9269 574.24108,597.28571 C 563.6243,592.64453 552.05518,582.95964 548.52233,555.41071 C 548.006,551.38444 547.76938,547.69855 547.61608,544.16071 C 555.10549,550.16789 564.45612,554.4016 575.80358,555.56696 C 596.64543,557.70738 613.76232,548.90573 620.89733,534.44196 C 628.03234,519.9782 624.5584,501.27369 610.64733,486.59821 C 598.58495,473.87301 576.56184,471.14764 557.92858,481.72321 C 552.74954,484.66265 548.10523,488.85223 544.05358,494.03571 C 544.58153,479.61578 549.57032,463.84463 558.33483,451.31696 C 563.02279,450.64831 567.80344,450.28571 572.67858,450.28571 z M 580.45983,493.06696 C 588.18465,492.88699 595.16362,495.39148 598.08483,498.47321 C 608.15534,509.0971 608.99277,519.46509 605.36608,526.81696 C 601.73939,534.16884 593.0436,539.93579 577.58483,538.34821 C 563.31372,536.88261 554.60246,530.54467 549.55358,521.06696 C 552.80006,508.18471 559.42023,500.76762 566.49108,496.75446 C 570.93185,494.23405 575.82494,493.17494 580.45983,493.06696 z "
       id="path3876" />
    <g
       id="g3882"
       transform="translate(-1.428571,-290.7142)">
      <path
         transform="translate(-80.29672,241.3815)"
         sodipodi:open="true"
         sodipodi:end="6.2783633"
         sodipodi:start="0"
         d="M 348.50263,254.34167 A 109.09647,109.09647 0 1 1 348.50136,253.81561"
         sodipodi:ry="109.09647"
         sodipodi:rx="109.09647"
         sodipodi:cy="254.34167"
         sodipodi:cx="239.40616"
         id="path3884"
         style="fill:#ff6161;fill-opacity:1;fill-rule:nonzero;stroke:none;stroke-width:17.29999924;stroke-linecap:round;stroke-linejoin:round;stroke-miterlimit:4;stroke-dasharray:none;stroke-opacity:1"
         sodipodi:type="arc" />
      <path
         style="fill:black;fill-opacity:1;fill-rule:nonzero;stroke:none;stroke-width:17.29999924;stroke-linecap:round;stroke-linejoin:round;stroke-miterlimit:4;stroke-opacity:1"
         d="M 159.10715,377.97321 C 94.205689,377.97321 41.357149,430.82176 41.357149,495.72321 C 41.357139,560.62466 94.205699,613.47322 159.10715,613.47321 C 223.98757,613.47321 276.82295,560.65833 276.85715,495.78571 C 276.85715,495.7752 276.85715,495.76497 276.85715,495.75446 C 276.85716,495.74404 276.85717,495.73363 276.85715,495.72321 C 276.86324,495.53576 276.86325,495.34816 276.85715,495.16071 C 276.85663,495.05515 276.82669,494.95371 276.8259,494.84821 C 276.34375,430.29614 223.69988,377.97322 159.10715,377.97321 z M 159.10715,395.28571 C 214.48163,395.28572 259.27764,439.84936 259.54465,495.22321 C 259.54276,495.32737 259.54277,495.43155 259.54465,495.53571 C 259.54396,495.59821 259.54397,495.66071 259.54465,495.72321 C 259.54465,551.26427 214.64821,596.16071 159.10715,596.16071 C 103.56608,596.16072 58.669649,551.26428 58.669649,495.72321 C 58.669639,453.50733 84.615769,417.44273 121.4509,402.56696 C 114.01811,419.1958 111.27776,437.63036 114.1384,454.44196 C 114.9449,459.18166 116.42875,463.74614 118.29465,468.12946 C 116.52693,478.06085 116.1044,489.41775 117.79465,502.59821 C 121.92138,534.77813 138.31235,551.38861 153.73215,558.12946 C 169.15195,564.87032 183.54465,562.69196 183.54465,562.69196 C 183.54465,562.69197 178.42955,563.10537 183.54465,562.62946 C 188.2218,562.19431 192.57465,562.41529 203.0134,556.28571 C 203.01343,556.28572 207.10715,564.16071 207.10715,564.16071 C 207.10717,564.1607 225.2009,535.72321 225.2009,535.72321 C 225.20091,535.7232 190.73215,533.75446 190.73215,533.75446 C 190.73218,533.75449 194.85715,541.84821 194.85715,541.84821 C 187.06515,545.57192 186.16316,545.47692 181.2009,545.66071 C 181.20089,545.66072 171.28643,546.9269 160.66965,542.28571 C 150.05287,537.64453 138.48375,527.95964 134.9509,500.41071 C 134.43457,496.38444 134.19795,492.69855 134.04465,489.16071 C 141.53406,495.16789 150.88469,499.4016 162.23215,500.56696 C 183.074,502.70738 200.19089,493.90573 207.3259,479.44196 C 214.46091,464.9782 210.98697,446.27369 197.0759,431.59821 C 185.01352,418.87301 162.99041,416.14764 144.35715,426.72321 C 139.17811,429.66265 134.5338,433.85223 130.48215,439.03571 C 131.0101,424.61578 135.99889,408.84463 144.7634,396.31696 C 149.45136,395.64831 154.23201,395.28571 159.10715,395.28571 z M 166.8884,438.06696 C 174.61322,437.88699 181.59219,440.39148 184.5134,443.47321 C 194.58391,454.0971 195.42134,464.46509 191.79465,471.81696 C 188.16796,479.16884 179.47217,484.93579 164.0134,483.34821 C 149.74229,481.88261 141.03103,475.54467 135.98215,466.06696 C 139.22863,453.18471 145.8488,445.76762 152.91965,441.75446 C 157.36042,439.23405 162.25351,438.17494 166.8884,438.06696 z "
         id="path3886" />
    </g>
    <text
       id="text3862"
       y="43.790756"
       x="14.285713"
       style="font-size:16px;font-style:normal;font-weight:normal;fill:black;fill-opacity:1;stroke:none;stroke-width:1px;stroke-linecap:butt;stroke-linejoin:miter;stroke-opacity:1;font-family:Arial"
       xml:space="preserve"><tspan
         style="font-size:32px"
         y="43.790756"
         x="14.285713"
         id="tspan3864"
         sodipodi:role="line">Logo, white background</tspan></text>
    <text
       xml:space="preserve"
       style="font-size:16px;font-style:normal;font-weight:normal;fill:black;fill-opacity:1;stroke:none;stroke-width:1px;stroke-linecap:butt;stroke-linejoin:miter;stroke-opacity:1;font-family:Arial"
       x="4.999999"
       y="402.36218"
       id="text3160"><tspan
         sodipodi:role="line"
         id="tspan3162"
         x="4.999999"
         y="402.36218"
         style="font-size:32px">Logo, for dark background</tspan></text>
    <text
       xml:space="preserve"
       style="font-size:16px;font-style:normal;font-weight:normal;fill:black;fill-opacity:1;stroke:none;stroke-width:1px;stroke-linecap:butt;stroke-linejoin:miter;stroke-opacity:1;font-family:Arial"
       x="458.57147"
       y="45.933605"
       id="text3868"><tspan
         sodipodi:role="line"
         id="tspan3870"
         x="458.57147"
         y="45.933605"
         style="font-size:32px">Logo, monochrome</tspan></text>
    <text
       xml:space="preserve"
       style="font-size:16px;font-style:normal;font-weight:normal;fill:black;fill-opacity:1;stroke:none;stroke-width:1px;stroke-linecap:butt;stroke-linejoin:miter;stroke-opacity:1;font-family:Arial"
       x="437.85718"
       y="403.07645"
       id="text3878"><tspan
         sodipodi:role="line"
         id="tspan3880"
         x="437.85718"
         y="403.07645"
         style="font-size:32px">Logo, white monochrome</tspan></text>
    <text
       id="text3152"
       y="755.93359"
       x="20.714323"
       style="font-size:16px;font-style:normal;font-weight:normal;fill:black;fill-opacity:1;stroke:none;stroke-width:1px;stroke-linecap:butt;stroke-linejoin:miter;stroke-opacity:1;font-family:Arial"
       xml:space="preserve"><tspan
         style="font-size:32px"
         y="755.93359"
         x="20.714323"
         id="tspan3154"
         sodipodi:role="line">Logo, grey watermark</tspan></text>
    <g
       id="g3858"
       transform="translate(2.857143,37.85715)"
       inkscape:export-filename="/home/alex/foreign/bruce/examples/pyglet-dark.png"
       inkscape:export-xdpi="48.919998"
       inkscape:export-ydpi="48.919998">
      <path
         transform="translate(-75.29672,252.8102)"
         sodipodi:open="true"
         sodipodi:end="6.2783633"
         sodipodi:start="0"
         d="M 348.50263,254.34167 A 109.09647,109.09647 0 1 1 348.50136,253.81561"
         sodipodi:ry="109.09647"
         sodipodi:rx="109.09647"
         sodipodi:cy="254.34167"
         sodipodi:cx="239.40616"
         id="path3122"
         style="fill:black;fill-opacity:1;fill-rule:nonzero;stroke:none;stroke-width:17.29999924;stroke-linecap:round;stroke-linejoin:round;stroke-miterlimit:4;stroke-dasharray:none;stroke-opacity:1"
         sodipodi:type="arc" />
      <path
         style="fill:#eb5353;fill-opacity:1;fill-rule:nonzero;stroke:none;stroke-width:17.29999924;stroke-linecap:round;stroke-linejoin:round;stroke-miterlimit:4;stroke-opacity:1"
         d="M 164.10715,389.40187 C 99.205689,389.40187 46.357149,442.25042 46.357149,507.15187 C 46.357139,572.05332 99.205699,624.90188 164.10715,624.90187 C 228.98757,624.90187 281.82295,572.08699 281.85715,507.21437 C 281.85715,507.20386 281.85715,507.19363 281.85715,507.18312 C 281.85716,507.1727 281.85717,507.16229 281.85715,507.15187 C 281.86324,506.96442 281.86325,506.77682 281.85715,506.58937 C 281.85663,506.48381 281.82669,506.38237 281.8259,506.27687 C 281.34375,441.7248 228.69988,389.40188 164.10715,389.40187 z M 164.10715,406.71437 C 219.48163,406.71438 264.27764,451.27802 264.54465,506.65187 C 264.54276,506.75603 264.54277,506.86021 264.54465,506.96437 C 264.54396,507.02687 264.54397,507.08937 264.54465,507.15187 C 264.54465,562.69293 219.64821,607.58937 164.10715,607.58937 C 108.56608,607.58938 63.669649,562.69294 63.669649,507.15187 C 63.669639,464.93599 89.615769,428.87139 126.4509,413.99562 C 119.01811,430.62446 116.27776,449.05902 119.1384,465.87062 C 119.9449,470.61032 121.42875,475.1748 123.29465,479.55812 C 121.52693,489.48951 121.1044,500.84641 122.79465,514.02687 C 126.92138,546.20679 143.31235,562.81727 158.73215,569.55812 C 174.15195,576.29898 188.54465,574.12062 188.54465,574.12062 C 188.54465,574.12063 183.42955,574.53403 188.54465,574.05812 C 193.2218,573.62297 197.57465,573.84395 208.0134,567.71437 C 208.01343,567.71438 212.10715,575.58937 212.10715,575.58937 C 212.10717,575.58936 230.2009,547.15187 230.2009,547.15187 C 230.20091,547.15186 195.73215,545.18312 195.73215,545.18312 C 195.73218,545.18315 199.85715,553.27687 199.85715,553.27687 C 192.06515,557.00058 191.16316,556.90558 186.2009,557.08937 C 186.20089,557.08938 176.28643,558.35556 165.66965,553.71437 C 155.05287,549.07319 143.48375,539.3883 139.9509,511.83937 C 139.43457,507.8131 139.19795,504.12721 139.04465,500.58937 C 146.53406,506.59655 155.88469,510.83026 167.23215,511.99562 C 188.074,514.13604 205.19089,505.33439 212.3259,490.87062 C 219.46091,476.40686 215.98697,457.70235 202.0759,443.02687 C 190.01352,430.30167 167.99041,427.5763 149.35715,438.15187 C 144.17811,441.09131 139.5338,445.28089 135.48215,450.46437 C 136.0101,436.04444 140.99889,420.27329 149.7634,407.74562 C 154.45136,407.07697 159.23201,406.71437 164.10715,406.71437 z M 171.8884,449.49562 C 179.61322,449.31565 186.59219,451.82014 189.5134,454.90187 C 199.58391,465.52576 200.42134,475.89375 196.79465,483.24562 C 193.16796,490.5975 184.47217,496.36445 169.0134,494.77687 C 154.74229,493.31127 146.03103,486.97333 140.98215,477.49562 C 144.22863,464.61337 150.8488,457.19628 157.91965,453.18312 C 162.36042,450.66271 167.25351,449.6036 171.8884,449.49562 z "
         id="path3832" />
    </g>
  </g>
  <g
     inkscape:groupmode="layer"
     id="layer2"
     style="display:none">
    <rect
       style="opacity:1;fill:none;fill-opacity:1;fill-rule:nonzero;stroke:red;stroke-width:0.30000028;stroke-linecap:round;stroke-linejoin:miter;stroke-miterlimit:4;stroke-dasharray:none;stroke-opacity:1"
       id="rect3093"
       width="54.888397"
       height="51.045933"
       x="121.46758"
       y="-271.82065"
       transform="matrix(-0.299064,0.954233,-0.954233,-0.299064,0,0)" />
    <rect
       style="opacity:1;fill:none;fill-opacity:1;fill-rule:nonzero;stroke:red;stroke-width:0.30000016;stroke-linecap:round;stroke-linejoin:miter;stroke-miterlimit:4;stroke-dasharray:none;stroke-opacity:1"
       id="rect3095"
       width="66.855545"
       height="8.107563"
       x="246.88493"
       y="-72.342659"
       transform="matrix(0.477823,0.878456,-0.878456,0.477823,0,0)" />
    <rect
       transform="matrix(0.893354,-0.449354,0.449354,0.893354,0,0)"
       y="268.07974"
       x="42.61515"
       height="8.3796721"
       width="74.02739"
       id="rect3102"
       style="opacity:1;fill:none;fill-opacity:1;fill-rule:nonzero;stroke:red;stroke-width:0.30000007;stroke-linecap:round;stroke-linejoin:miter;stroke-miterlimit:4;stroke-dasharray:none;stroke-opacity:1" />
    <rect
       transform="matrix(0.893354,-0.449354,0.449354,0.893354,0,0)"
       y="276.46503"
       x="42.595081"
       height="8.379674"
       width="74.027405"
       id="rect3104"
       style="opacity:1;fill:none;fill-opacity:1;fill-rule:nonzero;stroke:red;stroke-width:0.30000013;stroke-linecap:round;stroke-linejoin:miter;stroke-miterlimit:4;stroke-dasharray:none;stroke-opacity:1" />
    <rect
       transform="matrix(0.893354,-0.449354,0.449354,0.893354,0,0)"
       y="259.63715"
       x="42.578911"
       height="8.3796759"
       width="74.02742"
       id="rect3106"
       style="opacity:1;fill:none;fill-opacity:1;fill-rule:nonzero;stroke:red;stroke-width:0.30000019;stroke-linecap:round;stroke-linejoin:miter;stroke-miterlimit:4;stroke-dasharray:none;stroke-opacity:1" />
    <rect
       style="opacity:1;fill:none;fill-opacity:1;fill-rule:nonzero;stroke:red;stroke-width:0.30000019;stroke-linecap:round;stroke-linejoin:miter;stroke-miterlimit:4;stroke-dasharray:none;stroke-opacity:1"
       id="rect3100"
       width="74.02742"
       height="8.3796759"
       x="42.631546"
       y="284.8226"
       transform="matrix(0.893354,-0.449354,0.449354,0.893354,0,0)" />
  </g>
</svg>
