<?xml version="1.0" encoding="UTF-8" standalone="no"?>
<svg
   xmlns:dc="http://purl.org/dc/elements/1.1/"
   xmlns:cc="http://web.resource.org/cc/"
   xmlns:rdf="http://www.w3.org/1999/02/22-rdf-syntax-ns#"
   xmlns:svg="http://www.w3.org/2000/svg"
   xmlns="http://www.w3.org/2000/svg"
   xmlns:sodipodi="http://sodipodi.sourceforge.net/DTD/sodipodi-0.dtd"
   xmlns:inkscape="http://www.inkscape.org/namespaces/inkscape"
   style="fill-opacity:1; color-rendering:auto; color-interpolation:auto; text-rendering:auto; stroke:black; stroke-linecap:square; stroke-miterlimit:10; shape-rendering:auto; stroke-opacity:1; fill:black; stroke-dasharray:none; font-weight:normal; stroke-width:1; font-family:'Dialog'; font-style:normal; stroke-linejoin:miter; font-size:12; stroke-dashoffset:0; image-rendering:auto;"
   width="936"
   height="576"
   id="svg2"
   sodipodi:version="0.32"
   inkscape:version="0.44.1"
   sodipodi:docname="image_classes.svg"
   sodipodi:docbase="/home/alex/projects/pyglet/doc">
  <metadata
     id="metadata656">
    <rdf:RDF>
      <cc:Work
         rdf:about="">
        <dc:format>image/svg+xml</dc:format>
        <dc:type
           rdf:resource="http://purl.org/dc/dcmitype/StillImage" />
      </cc:Work>
    </rdf:RDF>
  </metadata>
  <sodipodi:namedview
     inkscape:window-height="638"
     inkscape:window-width="858"
     inkscape:pageshadow="2"
     inkscape:pageopacity="0.0"
     guidetolerance="10.0"
     gridtolerance="10.0"
     objecttolerance="10.0"
     borderopacity="1.0"
     bordercolor="#666666"
     pagecolor="#ffffff"
     id="base"
     inkscape:zoom="0.70833333"
     inkscape:cx="468"
     inkscape:cy="173.64706"
     inkscape:window-x="1280"
     inkscape:window-y="328"
     inkscape:current-layer="svg2" />
<!--Generated by the Batik Graphics2D SVG Generator-->  <defs
     id="genericDefs">
    <defs
       id="defs1">
      <clipPath
         id="clipPath1"
         clipPathUnits="userSpaceOnUse">
        <path
           id="path9"
           d="M-3 -3 L937 -3 L937 577 L-3 577 L-3 -3 Z" />
      </clipPath>
      <clipPath
         id="clipPath2"
         clipPathUnits="userSpaceOnUse">
        <path
           id="path12"
           d="M0 0 L0 14 L930 14 L930 0 Z" />
      </clipPath>
      <clipPath
         id="clipPath3"
         clipPathUnits="userSpaceOnUse">
        <path
           id="path15"
           d="M-3 -3 L197 -3 L197 97 L-3 97 L-3 -3 Z" />
      </clipPath>
      <clipPath
         id="clipPath4"
         clipPathUnits="userSpaceOnUse">
        <path
           id="path18"
           d="M0 0 L0 83 L190 83 L190 0 Z" />
      </clipPath>
      <clipPath
         id="clipPath5"
         clipPathUnits="userSpaceOnUse">
        <path
           id="path21"
           d="M0 0 L0 14 L190 14 L190 0 Z" />
      </clipPath>
      <clipPath
         id="clipPath6"
         clipPathUnits="userSpaceOnUse">
        <path
           id="path24"
           d="M-3 -3 L217 -3 L217 187 L-3 187 L-3 -3 Z" />
      </clipPath>
      <clipPath
         id="clipPath7"
         clipPathUnits="userSpaceOnUse">
        <path
           id="path27"
           d="M0 0 L0 159 L210 159 L210 0 Z" />
      </clipPath>
      <clipPath
         id="clipPath8"
         clipPathUnits="userSpaceOnUse">
        <path
           id="path30"
           d="M0 0 L0 28 L210 28 L210 0 Z" />
      </clipPath>
      <clipPath
         id="clipPath9"
         clipPathUnits="userSpaceOnUse">
        <path
           id="path33"
           d="M-3 -3 L127 -3 L127 47 L-3 47 L-3 -3 Z" />
      </clipPath>
      <clipPath
         id="clipPath10"
         clipPathUnits="userSpaceOnUse">
        <path
           id="path36"
           d="M0 0 L0 33 L120 33 L120 0 Z" />
      </clipPath>
      <clipPath
         id="clipPath11"
         clipPathUnits="userSpaceOnUse">
        <path
           id="path39"
           d="M0 0 L0 14 L120 14 L120 0 Z" />
      </clipPath>
      <clipPath
         id="clipPath12"
         clipPathUnits="userSpaceOnUse">
        <path
           id="path42"
           d="M-3 -3 L227 -3 L227 87 L-3 87 L-3 -3 Z" />
      </clipPath>
      <clipPath
         id="clipPath13"
         clipPathUnits="userSpaceOnUse">
        <path
           id="path45"
           d="M0 0 L0 73 L220 73 L220 0 Z" />
      </clipPath>
      <clipPath
         id="clipPath14"
         clipPathUnits="userSpaceOnUse">
        <path
           id="path48"
           d="M0 0 L0 14 L220 14 L220 0 Z" />
      </clipPath>
      <clipPath
         id="clipPath15"
         clipPathUnits="userSpaceOnUse">
        <path
           id="path51"
           d="M-3 -3 L117 -3 L117 47 L-3 47 L-3 -3 Z" />
      </clipPath>
      <clipPath
         id="clipPath16"
         clipPathUnits="userSpaceOnUse">
        <path
           id="path54"
           d="M0 0 L0 33 L110 33 L110 0 Z" />
      </clipPath>
      <clipPath
         id="clipPath17"
         clipPathUnits="userSpaceOnUse">
        <path
           id="path57"
           d="M0 0 L0 14 L110 14 L110 0 Z" />
      </clipPath>
      <clipPath
         id="clipPath18"
         clipPathUnits="userSpaceOnUse">
        <path
           id="path60"
           d="M-3 -3 L177 -3 L177 57 L-3 57 L-3 -3 Z" />
      </clipPath>
      <clipPath
         id="clipPath19"
         clipPathUnits="userSpaceOnUse">
        <path
           id="path63"
           d="M0 0 L0 43 L170 43 L170 0 Z" />
      </clipPath>
      <clipPath
         id="clipPath20"
         clipPathUnits="userSpaceOnUse">
        <path
           id="path66"
           d="M0 0 L0 14 L170 14 L170 0 Z" />
      </clipPath>
      <clipPath
         id="clipPath21"
         clipPathUnits="userSpaceOnUse">
        <path
           id="path69"
           d="M-3 -3 L167 -3 L167 107 L-3 107 L-3 -3 Z" />
      </clipPath>
      <clipPath
         id="clipPath22"
         clipPathUnits="userSpaceOnUse">
        <path
           id="path72"
           d="M0 0 L0 79 L160 79 L160 0 Z" />
      </clipPath>
      <clipPath
         id="clipPath23"
         clipPathUnits="userSpaceOnUse">
        <path
           id="path75"
           d="M0 0 L0 28 L160 28 L160 0 Z" />
      </clipPath>
      <clipPath
         id="clipPath24"
         clipPathUnits="userSpaceOnUse">
        <path
           id="path78"
           d="M0 0 L0 19 L120 19 L120 0 Z" />
      </clipPath>
      <clipPath
         id="clipPath25"
         clipPathUnits="userSpaceOnUse">
        <path
           id="path81"
           d="M0 0 L0 28 L120 28 L120 0 Z" />
      </clipPath>
      <clipPath
         id="clipPath26"
         clipPathUnits="userSpaceOnUse">
        <path
           id="path84"
           d="M-3 -3 L177 -3 L177 77 L-3 77 L-3 -3 Z" />
      </clipPath>
      <clipPath
         id="clipPath27"
         clipPathUnits="userSpaceOnUse">
        <path
           id="path87"
           d="M0 0 L0 49 L170 49 L170 0 Z" />
      </clipPath>
      <clipPath
         id="clipPath28"
         clipPathUnits="userSpaceOnUse">
        <path
           id="path90"
           d="M0 0 L0 28 L170 28 L170 0 Z" />
      </clipPath>
      <clipPath
         id="clipPath29"
         clipPathUnits="userSpaceOnUse">
        <path
           id="path93"
           d="M-3 -3 L187 -3 L187 77 L-3 77 L-3 -3 Z" />
      </clipPath>
      <clipPath
         id="clipPath30"
         clipPathUnits="userSpaceOnUse">
        <path
           id="path96"
           d="M0 0 L0 63 L180 63 L180 0 Z" />
      </clipPath>
      <clipPath
         id="clipPath31"
         clipPathUnits="userSpaceOnUse">
        <path
           id="path99"
           d="M0 0 L0 14 L180 14 L180 0 Z" />
      </clipPath>
      <clipPath
         id="clipPath32"
         clipPathUnits="userSpaceOnUse">
        <path
           id="path102"
           d="M-3 -3 L187 -3 L187 57 L-3 57 L-3 -3 Z" />
      </clipPath>
      <clipPath
         id="clipPath33"
         clipPathUnits="userSpaceOnUse">
        <path
           id="path105"
           d="M0 0 L0 43 L180 43 L180 0 Z" />
      </clipPath>
      <clipPath
         id="clipPath34"
         clipPathUnits="userSpaceOnUse">
        <path
           id="path108"
           d="M-3 -3 L107 -3 L107 47 L-3 47 L-3 -3 Z" />
      </clipPath>
      <clipPath
         id="clipPath35"
         clipPathUnits="userSpaceOnUse">
        <path
           id="path111"
           d="M0 0 L0 33 L100 33 L100 0 Z" />
      </clipPath>
      <clipPath
         id="clipPath36"
         clipPathUnits="userSpaceOnUse">
        <path
           id="path114"
           d="M0 0 L0 14 L100 14 L100 0 Z" />
      </clipPath>
      <clipPath
         id="clipPath37"
         clipPathUnits="userSpaceOnUse">
        <path
           id="path117"
           d="M-3 -3 L87 -3 L87 47 L-3 47 L-3 -3 Z" />
      </clipPath>
      <clipPath
         id="clipPath38"
         clipPathUnits="userSpaceOnUse">
        <path
           id="path120"
           d="M0 0 L0 33 L80 33 L80 0 Z" />
      </clipPath>
      <clipPath
         id="clipPath39"
         clipPathUnits="userSpaceOnUse">
        <path
           id="path123"
           d="M0 0 L0 14 L80 14 L80 0 Z" />
      </clipPath>
      <clipPath
         id="clipPath40"
         clipPathUnits="userSpaceOnUse">
        <path
           id="path126"
           d="M0 0 L474 0 L474 143 L0 143 L0 0 Z" />
      </clipPath>
      <clipPath
         id="clipPath41"
         clipPathUnits="userSpaceOnUse">
        <path
           id="path129"
           d="M0 0 L104 0 L104 133 L0 133 L0 0 Z" />
      </clipPath>
      <clipPath
         id="clipPath42"
         clipPathUnits="userSpaceOnUse">
        <path
           id="path132"
           d="M0 0 L104 0 L104 143 L0 143 L0 0 Z" />
      </clipPath>
      <clipPath
         id="clipPath43"
         clipPathUnits="userSpaceOnUse">
        <path
           id="path135"
           d="M0 0 L334 0 L334 263 L0 263 L0 0 Z" />
      </clipPath>
      <clipPath
         id="clipPath44"
         clipPathUnits="userSpaceOnUse">
        <path
           id="path138"
           d="M0 0 L154 0 L154 143 L0 143 L0 0 Z" />
      </clipPath>
      <clipPath
         id="clipPath45"
         clipPathUnits="userSpaceOnUse">
        <path
           id="path141"
           d="M0 0 L284 0 L284 143 L0 143 L0 0 Z" />
      </clipPath>
      <clipPath
         id="clipPath46"
         clipPathUnits="userSpaceOnUse">
        <path
           id="path144"
           d="M0 0 L234 0 L234 143 L0 143 L0 0 Z" />
      </clipPath>
      <clipPath
         id="clipPath47"
         clipPathUnits="userSpaceOnUse">
        <path
           id="path147"
           d="M0 0 L394 0 L394 143 L0 143 L0 0 Z" />
      </clipPath>
      <clipPath
         id="clipPath48"
         clipPathUnits="userSpaceOnUse">
        <path
           id="path150"
           d="M0 0 L304 0 L304 143 L0 143 L0 0 Z" />
      </clipPath>
      <clipPath
         id="clipPath49"
         clipPathUnits="userSpaceOnUse">
        <path
           id="path153"
           d="M0 0 L274 0 L274 193 L0 193 L0 0 Z" />
      </clipPath>
      <clipPath
         id="clipPath50"
         clipPathUnits="userSpaceOnUse">
        <path
           id="path156"
           d="M0 0 L174 0 L174 133 L0 133 L0 0 Z" />
      </clipPath>
      <clipPath
         id="clipPath51"
         clipPathUnits="userSpaceOnUse">
        <path
           id="path159"
           d="M0 0 L104 0 L104 203 L0 203 L0 0 Z" />
      </clipPath>
    </defs>
  </defs>
  <g
     id="g161"
     style="fill:white;stroke:white">
    <rect
       id="rect163"
       height="576"
       style="stroke:none"
       width="936"
       y="0"
       x="0" />
  </g>
  <g
     id="g165"
     style="font-size:11px;fill:#7acff5;stroke:#7acff5;font-family:sans-serif"
     transform="translate(2,2)">
    <rect
       id="rect167"
       height="20"
       style="stroke:none"
       width="185"
       y="0"
       x="0" />
    <rect
       id="rect169"
       height="549"
       style="stroke:none"
       width="929"
       y="20"
       x="0" />
  </g>
  <g
     id="g171"
     style="font-size:11px;stroke-linecap:butt;stroke-linejoin:round;stroke-miterlimit:0;font-family:sans-serif"
     transform="translate(2,2)">
    <rect
       id="rect173"
       height="20"
       style="fill:none"
       width="185"
       y="0"
       x="0" />
    <rect
       id="rect175"
       height="549"
       style="fill:none"
       width="929"
       y="20"
       x="0" />
  </g>
  <g
     id="g177"
     transform="translate(2,22)"
     style="font-size:11px;font-family:sans-serif">
    <text
       id="text179"
       xml:space="preserve"
       style="stroke:none"
       y="11"
       x="431">pyglet.image</text>
  </g>
  <g
     id="g181"
     style="font-size:11px;font-weight:bold;fill:white;stroke:white;font-family:sans-serif"
     transform="translate(22,272)">
    <rect
       id="rect183"
       height="90"
       style="stroke:none"
       width="190"
       y="0"
       x="0" />
  </g>
  <g
     id="g185"
     style="font-size:11px;font-weight:bold;stroke-linecap:butt;stroke-linejoin:round;stroke-miterlimit:0;font-family:sans-serif"
     transform="translate(22,272)">
    <rect
       id="rect187"
       height="90"
       style="fill:none"
       width="190"
       y="0"
       x="0" />
    <line
       id="line189"
       y2="14"
       style="fill:none"
       y1="14"
       x2="190"
       x1="0" />
  </g>
  <g
     id="g191"
     transform="translate(22,286)"
     style="font-size:11px;font-family:sans-serif">
    <text
       id="text193"
       xml:space="preserve"
       style="stroke:none"
       y="13"
       x="2">+data</text>
    <text
       id="text195"
       xml:space="preserve"
       style="stroke:none"
       y="27"
       x="2">+format</text>
    <text
       id="text197"
       xml:space="preserve"
       style="stroke:none"
       y="41"
       x="2">+pitch</text>
    <line
       id="line199"
       y2="46"
       style="fill:none;stroke-linecap:butt;stroke-linejoin:bevel;stroke-miterlimit:0"
       y1="46"
       x2="190"
       x1="0" />
    <text
       id="text201"
       xml:space="preserve"
       style="stroke:none"
       y="59"
       x="2">+set_mipmap_image(level, image)</text>
  </g>
  <g
     id="g203"
     style="font-size:11px;font-weight:bold;font-family:sans-serif"
     transform="translate(22,272)">
    <text
       id="text205"
       xml:space="preserve"
       style="stroke:none"
       y="11"
       x="65">ImageData</text>
  </g>
  <g
     id="g207"
     style="font-size:11px;font-weight:bold;fill:#ffc800;stroke:#ffc800;font-family:sans-serif"
     transform="translate(392,52)">
    <rect
       id="rect209"
       height="180"
       style="stroke:none"
       width="210"
       y="0"
       x="0" />
  </g>
  <g
     id="g211"
     style="font-size:11px;font-weight:bold;stroke-linecap:butt;stroke-linejoin:round;stroke-miterlimit:0;font-family:sans-serif"
     transform="translate(392,52)">
    <rect
       id="rect213"
       height="180"
       style="fill:none"
       width="210"
       y="0"
       x="0" />
    <line
       id="line215"
       y2="28"
       style="fill:none"
       y1="28"
       x2="210"
       x1="0" />
  </g>
  <g
     id="g217"
     transform="translate(392,80)"
     style="font-size:11px;font-family:sans-serif">
    <text
       id="text219"
       xml:space="preserve"
       style="stroke:none"
       y="13"
       x="2">+image_data</text>
    <text
       id="text221"
       xml:space="preserve"
       style="stroke:none"
       y="27"
       x="2">+texture</text>
    <text
       id="text223"
       xml:space="preserve"
       style="stroke:none"
       y="41"
       x="2">+mipmapped_texture</text>
    <text
       id="text225"
       xml:space="preserve"
       style="stroke:none"
       y="55"
       x="2">+width</text>
    <text
       id="text227"
       xml:space="preserve"
       style="stroke:none"
       y="69"
       x="2">+height</text>
    <line
       id="line229"
       y2="74"
       style="fill:none;stroke-linecap:butt;stroke-linejoin:bevel;stroke-miterlimit:0"
       y1="74"
       x2="210"
       x1="0" />
    <text
       id="text231"
       xml:space="preserve"
       style="stroke:none"
       y="87"
       x="2">+get_region(x, y, width, height)</text>
    <text
       id="text233"
       xml:space="preserve"
       style="stroke:none"
       y="101"
       x="2">+save(filename, file, encoder)</text>
    <text
       id="text235"
       xml:space="preserve"
       style="stroke:none"
       y="115"
       x="2">+blit(x, y, z)</text>
    <text
       id="text237"
       xml:space="preserve"
       style="stroke:none"
       y="129"
       x="2">+blit_into(source, x, y, z)</text>
    <text
       id="text239"
       xml:space="preserve"
       style="stroke:none"
       y="143"
       x="2">+blit_to_texture(target, level, x, y, z)</text>
  </g>
  <g
     id="g241"
     transform="translate(392,52)"
     style="font-size:11px;font-family:sans-serif">
    <text
       id="text243"
       xml:space="preserve"
       style="stroke:none"
       y="11"
       x="63">&lt;&lt;Interface&gt;&gt;</text>
    <text
       id="text245"
       xml:space="preserve"
       style="font-weight:bold;stroke:none"
       y="25"
       x="65">AbstractImage</text>
  </g>
  <g
     id="g247"
     style="font-size:11px;font-weight:bold;fill:white;stroke:white;font-family:sans-serif"
     transform="translate(62,392)">
    <rect
       id="rect249"
       height="40"
       style="stroke:none"
       width="120"
       y="0"
       x="0" />
  </g>
  <g
     id="g251"
     style="font-size:11px;font-weight:bold;stroke-linecap:butt;stroke-linejoin:round;stroke-miterlimit:0;font-family:sans-serif"
     transform="translate(62,392)">
    <rect
       id="rect253"
       height="40"
       style="fill:none"
       width="120"
       y="0"
       x="0" />
    <line
       id="line255"
       y2="14"
       style="fill:none"
       y1="14"
       x2="120"
       x1="0" />
  </g>
  <g
     id="g257"
     style="font-size:11px;font-weight:bold;font-family:sans-serif"
     transform="translate(62,392)">
    <text
       id="text259"
       xml:space="preserve"
       style="stroke:none"
       y="11"
       x="11">ImageDataRegion</text>
  </g>
  <g
     id="g261"
     style="font-size:11px;font-weight:bold;fill:white;stroke:white;font-family:sans-serif"
     transform="translate(422,272)">
    <rect
       id="rect263"
       height="80"
       style="stroke:none"
       width="220"
       y="0"
       x="0" />
  </g>
  <g
     id="g265"
     style="font-size:11px;font-weight:bold;stroke-linecap:butt;stroke-linejoin:round;stroke-miterlimit:0;font-family:sans-serif"
     transform="translate(422,272)">
    <rect
       id="rect267"
       height="80"
       style="fill:none"
       width="220"
       y="0"
       x="0" />
    <line
       id="line269"
       y2="14"
       style="fill:none"
       y1="14"
       x2="220"
       x1="0" />
  </g>
  <g
     id="g271"
     transform="translate(422,286)"
     style="font-size:11px;font-family:sans-serif">
    <text
       id="text273"
       xml:space="preserve"
       style="stroke:none"
       y="13"
       x="2">+tex_coords</text>
    <text
       id="text275"
       xml:space="preserve"
       style="stroke:none"
       y="27"
       x="2">+target</text>
    <text
       id="text277"
       xml:space="preserve"
       style="stroke:none"
       y="41"
       x="2">+level</text>
    <line
       id="line279"
       y2="46"
       style="fill:none;stroke-linecap:butt;stroke-linejoin:bevel;stroke-miterlimit:0"
       y1="46"
       x2="220"
       x1="0" />
    <text
       id="text281"
       xml:space="preserve"
       style="stroke:none"
       y="59"
       x="2">+create_for_size(target, width, height)</text>
    <line
       id="line283"
       y2="61"
       style="fill:none"
       y1="61"
       x2="208"
       x1="2" />
  </g>
  <g
     id="g285"
     style="font-size:11px;font-weight:bold;font-family:sans-serif"
     transform="translate(422,272)">
    <text
       id="text287"
       xml:space="preserve"
       style="stroke:none"
       y="11"
       x="88">Texture</text>
  </g>
  <g
     id="g289"
     style="font-size:11px;font-weight:bold;fill:white;stroke:white;font-family:sans-serif"
     transform="translate(522,392)">
    <rect
       id="rect291"
       height="40"
       style="stroke:none"
       width="110"
       y="0"
       x="0" />
  </g>
  <g
     id="g293"
     style="font-size:11px;font-weight:bold;stroke-linecap:butt;stroke-linejoin:round;stroke-miterlimit:0;font-family:sans-serif"
     transform="translate(522,392)">
    <rect
       id="rect295"
       height="40"
       style="fill:none"
       width="110"
       y="0"
       x="0" />
    <line
       id="line297"
       y2="14"
       style="fill:none"
       y1="14"
       x2="110"
       x1="0" />
  </g>
  <g
     id="g299"
     style="font-size:11px;font-weight:bold;font-family:sans-serif"
     transform="translate(522,392)">
    <text
       id="text301"
       xml:space="preserve"
       style="stroke:none"
       y="11"
       x="14">TextureRegion</text>
  </g>
  <g
     id="g303"
     style="font-size:11px;font-weight:bold;fill:white;stroke:white;font-family:sans-serif"
     transform="translate(742,512)">
    <rect
       id="rect305"
       height="50"
       style="stroke:none"
       width="170"
       y="0"
       x="0" />
  </g>
  <g
     id="g307"
     style="font-size:11px;font-weight:bold;stroke-linecap:butt;stroke-linejoin:round;stroke-miterlimit:0;font-family:sans-serif"
     transform="translate(742,512)">
    <rect
       id="rect309"
       height="50"
       style="fill:none"
       width="170"
       y="0"
       x="0" />
    <line
       id="line311"
       y2="14"
       style="fill:none"
       y1="14"
       x2="170"
       x1="0" />
  </g>
  <g
     id="g313"
     transform="translate(742,526)"
     style="font-size:11px;font-family:sans-serif">
    <text
       id="text315"
       xml:space="preserve"
       style="stroke:none"
       y="13"
       x="2">+create_for_images(images)</text>
    <line
       id="line317"
       y2="15"
       style="fill:none"
       y1="15"
       x2="156"
       x1="2" />
    <text
       id="text319"
       xml:space="preserve"
       style="stroke:none"
       y="27"
       x="2">+create_for_image_grid(grid)</text>
    <line
       id="line321"
       y2="29"
       style="fill:none"
       y1="29"
       x2="162"
       x1="2" />
  </g>
  <g
     id="g323"
     style="font-size:11px;font-weight:bold;font-family:sans-serif"
     transform="translate(742,512)">
    <text
       id="text325"
       xml:space="preserve"
       style="stroke:none"
       y="11"
       x="55">Texture3D</text>
  </g>
  <g
     id="g327"
     style="font-size:11px;font-weight:bold;fill:#ffc800;stroke:#ffc800;font-family:sans-serif"
     transform="translate(682,132)">
    <rect
       id="rect329"
       height="100"
       style="stroke:none"
       width="160"
       y="0"
       x="0" />
  </g>
  <g
     id="g331"
     style="font-size:11px;font-weight:bold;stroke-linecap:butt;stroke-linejoin:round;stroke-miterlimit:0;font-family:sans-serif"
     transform="translate(682,132)">
    <rect
       id="rect333"
       height="100"
       style="fill:none"
       width="160"
       y="0"
       x="0" />
    <line
       id="line335"
       y2="28"
       style="fill:none"
       y1="28"
       x2="160"
       x1="0" />
  </g>
  <g
     id="g337"
     transform="translate(682,160)"
     style="font-size:11px;font-family:sans-serif">
    <text
       id="text339"
       xml:space="preserve"
       style="stroke:none"
       y="13"
       x="2">+texture_sequence</text>
    <line
       id="line341"
       y2="18"
       style="fill:none;stroke-linecap:butt;stroke-linejoin:bevel;stroke-miterlimit:0"
       y1="18"
       x2="160"
       x1="0" />
    <text
       id="text343"
       xml:space="preserve"
       style="stroke:none"
       y="31"
       x="2">+__len__()</text>
    <text
       id="text345"
       xml:space="preserve"
       style="stroke:none"
       y="45"
       x="2">+__getitem__(slice)</text>
    <text
       id="text347"
       xml:space="preserve"
       style="stroke:none"
       y="59"
       x="2">+__setitem__(slice, image)</text>
  </g>
  <g
     id="g349"
     transform="translate(682,132)"
     style="font-size:11px;font-family:sans-serif">
    <text
       id="text351"
       xml:space="preserve"
       style="stroke:none"
       y="11"
       x="38">&lt;&lt;Interface&gt;&gt;</text>
    <text
       id="text353"
       xml:space="preserve"
       style="font-weight:bold;stroke:none"
       y="25"
       x="14">AbstractImageSequence</text>
  </g>
  <g
     id="g355"
     style="font-size:11px;font-weight:bold;fill:#ffc800;stroke:#ffc800;font-family:sans-serif"
     transform="translate(762,272)">
    <rect
       id="rect357"
       height="40"
       style="stroke:none"
       width="120"
       y="0"
       x="0" />
  </g>
  <g
     id="g359"
     style="font-size:11px;font-weight:bold;stroke-linecap:butt;stroke-linejoin:round;stroke-miterlimit:0;font-family:sans-serif"
     transform="translate(762,272)">
    <rect
       id="rect361"
       height="40"
       style="fill:none"
       width="120"
       y="0"
       x="0" />
    <line
       id="line363"
       y2="28"
       style="fill:none"
       y1="28"
       x2="120"
       x1="0" />
  </g>
  <g
     id="g365"
     transform="translate(762,272)"
     style="font-size:11px;font-family:sans-serif">
    <text
       id="text367"
       xml:space="preserve"
       style="stroke:none"
       y="11"
       x="18">&lt;&lt;Interface&gt;&gt;</text>
    <text
       id="text369"
       xml:space="preserve"
       style="font-weight:bold;stroke:none"
       y="25"
       x="13">TextureSequence</text>
  </g>
  <g
     id="g371"
     style="font-size:11px;font-weight:bold;fill:#ffc800;stroke:#ffc800;font-family:sans-serif"
     transform="translate(742,342)">
    <rect
       id="rect373"
       height="70"
       style="stroke:none"
       width="170"
       y="0"
       x="0" />
  </g>
  <g
     id="g375"
     style="font-size:11px;font-weight:bold;stroke-linecap:butt;stroke-linejoin:round;stroke-miterlimit:0;font-family:sans-serif"
     transform="translate(742,342)">
    <rect
       id="rect377"
       height="70"
       style="fill:none"
       width="170"
       y="0"
       x="0" />
    <line
       id="line379"
       y2="28"
       style="fill:none"
       y1="28"
       x2="170"
       x1="0" />
  </g>
  <g
     id="g381"
     transform="translate(742,370)"
     style="font-size:11px;font-family:sans-serif">
    <text
       id="text383"
       xml:space="preserve"
       style="stroke:none"
       y="13"
       x="2">+item_width</text>
    <text
       id="text385"
       xml:space="preserve"
       style="stroke:none"
       y="27"
       x="2">+item_height</text>
  </g>
  <g
     id="g387"
     transform="translate(742,342)"
     style="font-size:11px;font-family:sans-serif">
    <text
       id="text389"
       xml:space="preserve"
       style="stroke:none"
       y="11"
       x="43">&lt;&lt;Interface&gt;&gt;</text>
    <text
       id="text391"
       xml:space="preserve"
       style="font-weight:bold;stroke:none"
       y="25"
       x="14">UniformTextureSequence</text>
  </g>
  <g
     id="g393"
     style="font-size:11px;font-weight:bold;fill:white;stroke:white;font-family:sans-serif"
     transform="translate(232,272)">
    <rect
       id="rect395"
       height="70"
       style="stroke:none"
       width="180"
       y="0"
       x="0" />
  </g>
  <g
     id="g397"
     style="font-size:11px;font-weight:bold;stroke-linecap:butt;stroke-linejoin:round;stroke-miterlimit:0;font-family:sans-serif"
     transform="translate(232,272)">
    <rect
       id="rect399"
       height="70"
       style="fill:none"
       width="180"
       y="0"
       x="0" />
    <line
       id="line401"
       y2="14"
       style="fill:none"
       y1="14"
       x2="180"
       x1="0" />
  </g>
  <g
     id="g403"
     transform="translate(232,286)"
     style="font-size:11px;font-family:sans-serif">
    <text
       id="text405"
       xml:space="preserve"
       style="stroke:none"
       y="13"
       x="2">+data</text>
    <text
       id="text407"
       xml:space="preserve"
       style="stroke:none"
       y="27"
       x="2">+gl_format</text>
    <line
       id="line409"
       y2="32"
       style="fill:none;stroke-linecap:butt;stroke-linejoin:bevel;stroke-miterlimit:0"
       y1="32"
       x2="180"
       x1="0" />
    <text
       id="text411"
       xml:space="preserve"
       style="stroke:none"
       y="45"
       x="2">+set_mipmap_data(level, data)</text>
  </g>
  <g
     id="g413"
     style="font-size:11px;font-weight:bold;font-family:sans-serif"
     transform="translate(232,272)">
    <text
       id="text415"
       xml:space="preserve"
       style="stroke:none"
       y="11"
       x="26">CompressedImageData</text>
  </g>
  <g
     id="g417"
     style="font-size:11px;font-weight:bold;fill:white;stroke:white;font-family:sans-serif"
     transform="translate(322,392)">
    <rect
       id="rect419"
       height="50"
       style="stroke:none"
       width="180"
       y="0"
       x="0" />
  </g>
  <g
     id="g421"
     style="font-size:11px;font-weight:bold;stroke-linecap:butt;stroke-linejoin:round;stroke-miterlimit:0;font-family:sans-serif"
     transform="translate(322,392)">
    <rect
       id="rect423"
       height="50"
       style="fill:none"
       width="180"
       y="0"
       x="0" />
    <line
       id="line425"
       y2="14"
       style="fill:none"
       y1="14"
       x2="180"
       x1="0" />
  </g>
  <g
     id="g427"
     transform="translate(322,406)"
     style="font-size:11px;font-family:sans-serif">
    <text
       id="text429"
       xml:space="preserve"
       style="stroke:none"
       y="13"
       x="2">+create_for_image(image)</text>
    <line
       id="line431"
       y2="15"
       style="fill:none"
       y1="15"
       x2="144"
       x1="2" />
    <text
       id="text433"
       xml:space="preserve"
       style="stroke:none"
       y="27"
       x="2">+blit_tiled(x, y, z, width, height)</text>
  </g>
  <g
     id="g435"
     style="font-size:11px;font-weight:bold;font-family:sans-serif"
     transform="translate(322,392)">
    <text
       id="text437"
       xml:space="preserve"
       style="stroke:none"
       y="11"
       x="46">TileableTexture</text>
  </g>
  <g
     id="g439"
     style="font-size:11px;font-weight:bold;fill:white;stroke:white;font-family:sans-serif"
     transform="translate(202,392)">
    <rect
       id="rect441"
       height="40"
       style="stroke:none"
       width="100"
       y="0"
       x="0" />
  </g>
  <g
     id="g443"
     style="font-size:11px;font-weight:bold;stroke-linecap:butt;stroke-linejoin:round;stroke-miterlimit:0;font-family:sans-serif"
     transform="translate(202,392)">
    <rect
       id="rect445"
       height="40"
       style="fill:none"
       width="100"
       y="0"
       x="0" />
    <line
       id="line447"
       y2="14"
       style="fill:none"
       y1="14"
       x2="100"
       x1="0" />
  </g>
  <g
     id="g449"
     style="font-size:11px;font-weight:bold;font-family:sans-serif"
     transform="translate(202,392)">
    <text
       id="text451"
       xml:space="preserve"
       style="stroke:none"
       y="11"
       x="11">DepthTexture</text>
  </g>
  <g
     id="g453"
     style="font-size:11px;font-weight:bold;fill:white;stroke:white;font-family:sans-serif"
     transform="translate(662,272)">
    <rect
       id="rect455"
       height="40"
       style="stroke:none"
       width="80"
       y="0"
       x="0" />
  </g>
  <g
     id="g457"
     style="font-size:11px;font-weight:bold;stroke-linecap:butt;stroke-linejoin:round;stroke-miterlimit:0;font-family:sans-serif"
     transform="translate(662,272)">
    <rect
       id="rect459"
       height="40"
       style="fill:none"
       width="80"
       y="0"
       x="0" />
    <line
       id="line461"
       y2="14"
       style="fill:none"
       y1="14"
       x2="80"
       x1="0" />
  </g>
  <g
     id="g463"
     style="font-size:11px;font-weight:bold;font-family:sans-serif"
     transform="translate(662,272)">
    <text
       id="text465"
       xml:space="preserve"
       style="stroke:none"
       y="11"
       x="11">ImageGrid</text>
  </g>
  <g
     id="g467"
     style="font-size:11px;font-weight:bold;fill:white;stroke:white;font-family:sans-serif"
     transform="translate(682,442)">
    <rect
       id="rect469"
       height="40"
       style="stroke:none"
       width="110"
       y="0"
       x="0" />
  </g>
  <g
     id="g471"
     style="font-size:11px;font-weight:bold;stroke-linecap:butt;stroke-linejoin:round;stroke-miterlimit:0;font-family:sans-serif"
     transform="translate(682,442)">
    <rect
       id="rect473"
       height="40"
       style="fill:none"
       width="110"
       y="0"
       x="0" />
    <line
       id="line475"
       y2="14"
       style="fill:none"
       y1="14"
       x2="110"
       x1="0" />
  </g>
  <g
     id="g477"
     transform="translate(682,456)"
     style="font-size:11px;font-family:sans-serif">
    <text
       id="text479"
       xml:space="preserve"
       style="stroke:none"
       y="13"
       x="2">+get(row, column)</text>
  </g>
  <g
     id="g481"
     style="font-size:11px;font-weight:bold;font-family:sans-serif"
     transform="translate(682,442)">
    <text
       id="text483"
       xml:space="preserve"
       style="stroke:none"
       y="11"
       x="21">TextureGrid</text>
  </g>
  <g
     id="g485"
     style="font-size:11px;stroke-linecap:butt;stroke-linejoin:round;font-family:sans-serif"
     transform="translate(72,182)">
    <line
       id="line487"
       y2="70"
       style="fill:none"
       y1="50"
       x2="420"
       x1="420" />
    <line
       id="line489"
       y2="70"
       style="fill:none"
       y1="70"
       x2="50"
       x1="420" />
    <line
       id="line491"
       y2="89"
       style="fill:none"
       y1="70"
       x2="50"
       x1="50" />
    <polygon
       id="polygon493"
       points="420,50 414,62 426,62 420,50 "
       style="fill:white;stroke:none" />
    <polygon
       id="polygon495"
       points="420,50 414,62 426,62 420,50 "
       style="fill:none" />
  </g>
  <g
     id="g497"
     style="font-size:11px;stroke-linecap:butt;stroke-linejoin:round;font-family:sans-serif"
     transform="translate(72,312)">
    <line
       id="line499"
       y2="79"
       style="fill:none"
       y1="50"
       x2="50"
       x1="50" />
    <polygon
       id="polygon501"
       points="50,50 44,62 56,62 50,50 "
       style="fill:white;stroke:none" />
    <polygon
       id="polygon503"
       points="50,50 44,62 56,62 50,50 "
       style="fill:none" />
  </g>
  <g
     id="g505"
     style="font-size:11px;stroke-linecap:butt;stroke-linejoin:round;font-family:sans-serif"
     transform="translate(442,182)">
    <line
       id="line507"
       y2="89"
       style="fill:none"
       y1="50"
       x2="50"
       x1="50" />
    <polygon
       id="polygon509"
       points="50,50 44,62 56,62 50,50 "
       style="fill:white;stroke:none" />
    <polygon
       id="polygon511"
       points="50,50 44,62 56,62 50,50 "
       style="fill:none" />
  </g>
  <g
     id="g513"
     style="font-size:11px;stroke-linecap:butt;stroke-linejoin:round;font-family:sans-serif"
     transform="translate(492,302)">
    <line
       id="line515"
       y2="89"
       style="fill:none"
       y1="50"
       x2="50"
       x1="50" />
    <polygon
       id="polygon517"
       points="50,50 44,62 56,62 50,50 "
       style="fill:white;stroke:none" />
    <polygon
       id="polygon519"
       points="50,50 44,62 56,62 50,50 "
       style="fill:none" />
  </g>
  <g
     id="g521"
     style="font-size:11px;stroke-linecap:butt;stroke-linejoin:round;font-family:sans-serif"
     transform="translate(492,302)">
    <line
       id="line523"
       y2="70"
       style="fill:none"
       y1="50"
       x2="50"
       x1="50" />
    <line
       id="line525"
       y2="70"
       style="fill:none"
       y1="70"
       x2="150"
       x1="50" />
    <line
       id="line527"
       y2="190"
       style="fill:none"
       y1="70"
       x2="150"
       x1="150" />
    <line
       id="line529"
       y2="190"
       style="fill:none"
       y1="190"
       x2="280"
       x1="150" />
    <line
       id="line531"
       y2="209"
       style="fill:none"
       y1="190"
       x2="280"
       x1="280" />
    <polygon
       id="polygon533"
       points="50,50 44,62 56,62 50,50 "
       style="fill:white;stroke:none" />
    <polygon
       id="polygon535"
       points="50,50 44,62 56,62 50,50 "
       style="fill:none" />
  </g>
  <g
     id="g537"
     style="font-size:11px;stroke-linecap:butt;stroke-linejoin:round;font-family:sans-serif"
     transform="translate(722,182)">
    <line
       id="line539"
       y2="70"
       style="fill:none"
       y1="50"
       x2="50"
       x1="50" />
    <line
       id="line541"
       y2="70"
       style="fill:none"
       y1="70"
       x2="100"
       x1="50" />
    <line
       id="line543"
       y2="89"
       style="fill:none"
       y1="70"
       x2="100"
       x1="100" />
    <polygon
       id="polygon545"
       points="50,50 44,62 56,62 50,50 "
       style="fill:white;stroke:none" />
    <polygon
       id="polygon547"
       points="50,50 44,62 56,62 50,50 "
       style="fill:none" />
  </g>
  <g
     id="g549"
     style="font-size:11px;stroke-linecap:butt;stroke-linejoin:round;font-family:sans-serif"
     transform="translate(772,262)">
    <line
       id="line551"
       y2="79"
       style="fill:none"
       y1="50"
       x2="50"
       x1="50" />
    <polygon
       id="polygon553"
       points="50,50 44,62 56,62 50,50 "
       style="fill:white;stroke:none" />
    <polygon
       id="polygon555"
       points="50,50 44,62 56,62 50,50 "
       style="fill:none" />
  </g>
  <g
     id="g557"
     style="font-size:11px;stroke-linecap:butt;stroke-linejoin:round;font-family:sans-serif"
     transform="translate(262,182)">
    <line
       id="line559"
       y2="70"
       style="fill:none"
       y1="50"
       x2="230"
       x1="230" />
    <line
       id="line561"
       y2="70"
       style="fill:none"
       y1="70"
       x2="50"
       x1="230" />
    <line
       id="line563"
       y2="89"
       style="fill:none"
       y1="70"
       x2="50"
       x1="50" />
    <polygon
       id="polygon565"
       points="230,50 224,62 236,62 230,50 "
       style="fill:white;stroke:none" />
    <polygon
       id="polygon567"
       points="230,50 224,62 236,62 230,50 "
       style="fill:none" />
  </g>
  <g
     id="g569"
     style="font-size:11px;stroke-linecap:butt;stroke-linejoin:round;font-family:sans-serif"
     transform="translate(362,302)">
    <line
       id="line571"
       y2="70"
       style="fill:none"
       y1="50"
       x2="180"
       x1="180" />
    <line
       id="line573"
       y2="70"
       style="fill:none"
       y1="70"
       x2="50"
       x1="180" />
    <line
       id="line575"
       y2="89"
       style="fill:none"
       y1="70"
       x2="50"
       x1="50" />
    <polygon
       id="polygon577"
       points="180,50 174,62 186,62 180,50 "
       style="fill:white;stroke:none" />
    <polygon
       id="polygon579"
       points="180,50 174,62 186,62 180,50 "
       style="fill:none" />
  </g>
  <g
     id="g581"
     style="font-size:11px;stroke-linecap:butt;stroke-linejoin:round;font-family:sans-serif"
     transform="translate(202,302)">
    <line
       id="line583"
       y2="70"
       style="fill:none"
       y1="50"
       x2="340"
       x1="340" />
    <line
       id="line585"
       y2="70"
       style="fill:none"
       y1="70"
       x2="50"
       x1="340" />
    <line
       id="line587"
       y2="89"
       style="fill:none"
       y1="70"
       x2="50"
       x1="50" />
    <polygon
       id="polygon589"
       points="340,50 334,62 346,62 340,50 "
       style="fill:white;stroke:none" />
    <polygon
       id="polygon591"
       points="340,50 334,62 346,62 340,50 "
       style="fill:none" />
  </g>
  <g
     id="g593"
     style="font-size:11px;stroke-linecap:butt;stroke-linejoin:round;font-family:sans-serif"
     transform="translate(442,182)">
    <line
       id="line595"
       y2="70"
       style="fill:none"
       y1="50"
       x2="50"
       x1="50" />
    <line
       id="line597"
       y2="70"
       style="fill:none"
       y1="70"
       x2="250"
       x1="50" />
    <line
       id="line599"
       y2="89"
       style="fill:none"
       y1="70"
       x2="250"
       x1="250" />
    <polygon
       id="polygon601"
       points="50,50 44,62 56,62 50,50 "
       style="fill:white;stroke:none" />
    <polygon
       id="polygon603"
       points="50,50 44,62 56,62 50,50 "
       style="fill:none" />
  </g>
  <g
     id="g605"
     style="font-size:11px;stroke-linecap:butt;stroke-linejoin:round;font-family:sans-serif"
     transform="translate(672,182)">
    <line
       id="line607"
       y2="70"
       style="fill:none"
       y1="50"
       x2="100"
       x1="100" />
    <line
       id="line609"
       y2="70"
       style="fill:none"
       y1="70"
       x2="50"
       x1="100" />
    <line
       id="line611"
       y2="89"
       style="fill:none"
       y1="70"
       x2="50"
       x1="50" />
    <polygon
       id="polygon613"
       points="100,50 94,62 106,62 100,50 "
       style="fill:white;stroke:none" />
    <polygon
       id="polygon615"
       points="100,50 94,62 106,62 100,50 "
       style="fill:none" />
  </g>
  <g
     id="g617"
     style="font-size:11px;stroke-linecap:butt;stroke-linejoin:round;font-family:sans-serif"
     transform="translate(492,302)">
    <line
       id="line619"
       y2="70"
       style="fill:none"
       y1="50"
       x2="50"
       x1="50" />
    <line
       id="line621"
       y2="70"
       style="fill:none"
       y1="70"
       x2="220"
       x1="50" />
    <line
       id="line623"
       y2="139"
       style="fill:none"
       y1="70"
       x2="220"
       x1="220" />
    <polygon
       id="polygon625"
       points="50,50 44,62 56,62 50,50 "
       style="fill:white;stroke:none" />
    <polygon
       id="polygon627"
       points="50,50 44,62 56,62 50,50 "
       style="fill:none" />
  </g>
  <g
     id="g629"
     style="font-size:11px;stroke-linecap:butt;stroke-linejoin:round;font-family:sans-serif"
     transform="translate(702,362)">
    <line
       id="line631"
       y2="70"
       style="fill:none"
       y1="50"
       x2="120"
       x1="120" />
    <line
       id="line633"
       y2="70"
       style="fill:none"
       y1="70"
       x2="50"
       x1="120" />
    <line
       id="line635"
       y2="79"
       style="fill:none"
       y1="70"
       x2="50"
       x1="50" />
    <polygon
       id="polygon637"
       points="120,50 114,62 126,62 120,50 "
       style="fill:white;stroke:none" />
    <polygon
       id="polygon639"
       points="120,50 114,62 126,62 120,50 "
       style="fill:none" />
  </g>
  <g
     id="g641"
     style="font-size:11px;stroke-linecap:butt;stroke-linejoin:round;font-family:sans-serif"
     transform="translate(772,362)">
    <line
       id="line643"
       y2="149"
       style="fill:none"
       y1="50"
       x2="50"
       x1="50" />
    <polygon
       id="polygon645"
       points="50,50 44,62 56,62 50,50 "
       style="fill:white;stroke:none" />
    <polygon
       id="polygon647"
       points="50,50 44,62 56,62 50,50 "
       style="fill:none" />
  </g>
</svg>
